# xmcd CD database file
#
# Track frame offsets:
#	150
#	42452
#	83320
#	99860
#	114880
#	143115
#	178785
#	199607
#
# Disc length: 2932 seconds
#
# Revision: 0
# Processed by: cddbd v1.5.2PL0 Copyright (c) Steve Scherf et al.
# Submitted via: CDex 1.51
#
DISCID=590b7208
DTITLE=Miles Davis - Miles Davis   Super Hits
DYEAR=2001
DGENRE=Jazz
TTITLE0=Miles Davis Sextet - So What
TTITLE1=Miles Davis - Some Day My Prince Will Come
TTITLE2=Miles Davis - Time After Time
TTITLE3=Miles Davis - Summertime
TTITLE4=Miles Davis - Eighty-One
TTITLE5=Miles Davis - Bye Bye Blackbird
TTITLE6=Miles Davis - New Rhumba
TTITLE7=Miles Davis - Human Nature
EXTD=YEAR: 2001
EXTT0=
EXTT1=
EXTT2=
EXTT3=
EXTT4=
EXTT5=
EXTT6=
EXTT7=
PLAYORDER=
